<svg xmlns="http://www.w3.org/2000/svg" viewBox="0 0 1200 820" role="img" aria-labelledby="airspace-title airspace-desc">
  <title id="airspace-title">Концептуальная вертикальная структура воздушного пространства</title>
  <desc id="airspace-desc">Учебная концептуальная схема классов и элементов: верхний controlled layer, TMA с нижней границей выше поверхности, CTR от поверхности, окружающее uncontrolled airspace, зона P/R/D и рельеф. Это не текущая карта Испании и не источник навигационных данных.</desc>
  <defs>
    <style>
      .outline { stroke: #102a43; stroke-width: 4; }
      .upper { fill: #d9ecff; }
      .tma { fill: #eadfff; }
      .ctr { fill: #ffe1d6; }
      .uncontrolled { fill: #e4f5df; }
      .zone { fill: #fff1b8; stroke: #8b1e1e; stroke-width: 4; stroke-dasharray: 10 8; }
      .terrain { fill: #7a5b3a; stroke: #3d2e1d; stroke-width: 3; }
      .limit { stroke: #102a43; stroke-width: 3; stroke-dasharray: 12 8; }
      .title { font: 700 40px system-ui, sans-serif; fill: #102a43; text-anchor: middle; }
      .label { font: 700 40px system-ui, sans-serif; fill: #102a43; text-anchor: middle; }
      .body { font: 40px system-ui, sans-serif; fill: #102a43; text-anchor: middle; }
      .terrain-label { font: 700 40px system-ui, sans-serif; fill: #ffffff; text-anchor: middle; }
      .warn { font: 700 40px system-ui, sans-serif; text-anchor: middle; }
    </style>
  </defs>

  <rect x="0" y="0" width="1200" height="820" fill="#f8fafc"/>
  <text x="600" y="36" class="title">
    <tspan x="600" y="36">Концептуальная схема — не навигационная карта</tspan>
    <tspan x="600" y="76">и не текущая структура España</tspan>
  </text>

  <rect x="55" y="90" width="1090" height="155" class="outline upper"/>
  <text x="600" y="132" class="label">Верхний контролируемый слой</text>
  <text x="600" y="174" class="body">класс и услуги определяет текущая публикация</text>
  <text x="600" y="220" class="body">границы имеют точную систему отсчёта</text>

  <rect x="180" y="245" width="840" height="210" class="outline tma"/>
  <text x="600" y="287" class="label">TMA / CTA</text>
  <text x="600" y="326" class="body">
    <tspan x="600" y="326">контролируемое пространство начинается выше</tspan>
    <tspan x="600" y="368">опубликованной нижней границы</tspan>
  </text>
  <line x1="180" y1="380" x2="1020" y2="380" class="limit"/>
  <text x="600" y="428" class="body">нижняя граница: значение + AMSL / AGL / FL</text>

  <rect x="465" y="455" width="270" height="265" class="outline ctr"/>
  <text x="600" y="486" class="label">CTR</text>
  <text x="600" y="518" class="body">от SFC</text>

  <path d="M 55 455 L 465 455 L 465 720 L 55 720 Z" class="outline uncontrolled"/>
  <path d="M 735 455 L 1145 455 L 1145 720 L 735 720 Z" class="outline uncontrolled"/>
  <text x="255" y="499" class="label">Неконтролируемое</text>
  <text x="255" y="540" class="body">например: класс G</text>
  <text x="940" y="499" class="label">Неконтролируемое</text>
  <text x="940" y="532" class="body">правила действуют</text>

  <!-- Terrain is intentionally painted before the operational symbols and labels. -->
  <path id="terrain-layer" d="M 55 670 L 190 625 L 300 665 L 410 620 L 520 670 L 640 635 L 760 675 L 890 625 L 1010 670 L 1145 630 L 1145 720 L 55 720 Z" class="terrain"/>
  <text x="600" y="705" class="terrain-label">рельеф / SFC — препятствия и отсчёт высоты</text>

  <g id="special-use-zone">
    <rect x="740" y="545" width="380" height="75" rx="12" class="zone"/>
    <text x="930" y="574" class="body" font-weight="700">P / R / D</text>
    <text x="930" y="612" class="body">пределы, активация</text>
  </g>

  <g id="aerodrome-symbol">
    <text x="600" y="551" class="body">аэродром</text>
    <path d="M 540 600 L 600 562 L 660 600 Z" fill="#102a43"/>
    <rect x="525" y="600" width="150" height="12" fill="#102a43"/>
  </g>

  <rect id="warning-panel" x="95" y="735" width="1010" height="80" rx="12" fill="#102a43"/>
  <text id="warning-text" x="600" y="770" class="warn" fill="#ffffff">
    <tspan x="600" y="770">Классы, границы, частоты, расписания и NOTAM:</tspan>
    <tspan x="600" y="808">только текущая AIS</tspan>
  </text>
</svg>
