<svg xmlns="http://www.w3.org/2000/svg" viewBox="0 0 1200 760" role="img" aria-labelledby="airspace-title airspace-desc">
  <title id="airspace-title">Концептуальная вертикальная структура воздушного пространства</title>
  <desc id="airspace-desc">Учебная концептуальная схема классов и элементов: верхний controlled layer, TMA с нижней границей выше поверхности, CTR от поверхности, окружающее uncontrolled airspace, зона P/R/D и рельеф. Это не текущая карта Испании и не источник навигационных данных.</desc>
  <defs>
    <style>
      .outline { stroke: #102a43; stroke-width: 4; }
      .upper { fill: #d9ecff; }
      .tma { fill: #eadfff; }
      .ctr { fill: #ffe1d6; }
      .uncontrolled { fill: #e4f5df; }
      .zone { fill: #fff1b8; stroke: #8b1e1e; stroke-width: 4; stroke-dasharray: 10 8; }
      .terrain { fill: #7a5b3a; stroke: #3d2e1d; stroke-width: 3; }
      .limit { stroke: #102a43; stroke-width: 3; stroke-dasharray: 12 8; }
      .title { font: 700 27px system-ui, sans-serif; fill: #102a43; text-anchor: middle; }
      .label { font: 700 22px system-ui, sans-serif; fill: #102a43; text-anchor: middle; }
      .body { font: 18px system-ui, sans-serif; fill: #102a43; text-anchor: middle; }
      .warn { font: 700 19px system-ui, sans-serif; fill: #8b1e1e; text-anchor: middle; }
    </style>
  </defs>

  <text x="600" y="38" class="title">Концептуальная схема — не навигационная карта и не текущая структура España</text>

  <rect x="55" y="65" width="1090" height="170" class="outline upper"/>
  <text x="600" y="115" class="label">Верхний controlled layer</text>
  <text x="600" y="150" class="body">класс и услуги определяет текущая публикация</text>
  <text x="600" y="182" class="body">верхняя/нижняя границы имеют точный vertical reference</text>

  <rect x="180" y="235" width="840" height="180" class="outline tma"/>
  <text x="600" y="275" class="label">TMA / CTA</text>
  <text x="600" y="307" class="body">controlled airspace начинается выше опубликованной нижней границы</text>
  <line x1="180" y1="350" x2="1020" y2="350" class="limit"/>
  <text x="600" y="382" class="body">пример нижней границы: значение + AMSL / AGL / FL</text>

  <rect x="465" y="415" width="270" height="245" class="outline ctr"/>
  <text x="600" y="458" class="label">CTR</text>
  <text x="600" y="488" class="body">controlled от SFC</text>
  <path d="M 540 630 L 600 590 L 660 630 Z" fill="#102a43"/>
  <rect x="525" y="630" width="150" height="12" fill="#102a43"/>
  <text x="600" y="685" class="body">аэродром</text>

  <path d="M 55 415 L 465 415 L 465 660 L 55 660 Z" class="outline uncontrolled"/>
  <path d="M 735 415 L 1145 415 L 1145 660 L 735 660 Z" class="outline uncontrolled"/>
  <text x="255" y="455" class="label">Uncontrolled</text>
  <text x="255" y="488" class="body">например class G</text>
  <text x="940" y="455" class="label">Uncontrolled</text>
  <text x="940" y="488" class="body">правила всё равно действуют</text>

  <rect x="820" y="500" width="220" height="120" rx="12" class="zone"/>
  <text x="930" y="540" class="label">P / R / D</text>
  <text x="930" y="572" class="body">проверить пределы</text>
  <text x="930" y="600" class="body">и активацию</text>

  <path d="M 55 660 L 190 600 L 300 650 L 410 590 L 520 650 L 640 605 L 760 650 L 890 585 L 1010 640 L 1145 600 L 1145 720 L 55 720 Z" class="terrain"/>
  <text x="600" y="742" class="body">terrain / SFC — профиль маршрута должен учитывать препятствия и reference высоты</text>

  <text x="600" y="710" class="warn">Фактические classes, boundaries, frequencies, schedules и NOTAM брать только из current AIS</text>
</svg>
