<svg xmlns="http://www.w3.org/2000/svg" viewBox="0 0 700 950" role="img" aria-labelledby="chart-symbols-title chart-symbols-desc">
  <title id="chart-symbols-title">Учебная легенда условных знаков ENAIRE AIP GEN 2.3</title>
  <desc id="chart-symbols-desc">Векторная учебная перерисовка представительных знаков: гражданский аэродром, группа препятствий, зона P/R/D, линия электропередачи, автомагистраль, железная дорога и наземный ориентир-замок. Перед полётом знаки сверяют с текущей легендой конкретной карты.</desc>
  <defs>
    <pattern id="prd-hatch" width="18" height="18" patternUnits="userSpaceOnUse" patternTransform="rotate(45)">
      <path d="M 0 0 V 18" stroke="#a90067" stroke-width="7"/>
    </pattern>
    <style>
      .panel { fill: #f8fafc; stroke: #64748b; stroke-width: 2; }
      .symbol { fill: none; stroke: #075985; stroke-width: 7; stroke-linecap: round; stroke-linejoin: round; }
      .label { fill: #0f172a; font-family: system-ui, sans-serif; font-size: 30px; font-weight: 700; }
      .note { fill: #334155; font-family: system-ui, sans-serif; font-size: 30px; }
    </style>
  </defs>

  <rect width="700" height="950" fill="#ffffff"/>
  <text x="350" y="42" text-anchor="middle" class="label">Представительные знаки GEN 2.3</text>
  <text x="350" y="78" text-anchor="middle" class="note" style="font-size:22px">учебная перерисовка — сверять текущую легенду карты</text>

  <g id="symbol-civil-aerodrome" transform="translate(20 105)">
    <rect class="panel" width="320" height="175" rx="14"/>
    <circle cx="67" cy="72" r="32" class="symbol"/>
    <line x1="67" y1="24" x2="67" y2="40" class="symbol"/>
    <line x1="67" y1="104" x2="67" y2="120" class="symbol"/>
    <line x1="19" y1="72" x2="35" y2="72" class="symbol"/>
    <line x1="99" y1="72" x2="115" y2="72" class="symbol"/>
    <text x="110" y="62" class="label">Гражданский</text>
    <text x="110" y="98" class="label">аэродром</text>
    <text x="110" y="132" class="note">Aeródromo</text>
    <text x="110" y="162" class="note">civil</text>
  </g>

  <g id="symbol-obstacle-group" transform="translate(360 105)">
    <rect class="panel" width="320" height="175" rx="14"/>
    <polyline points="18,111 48,36 78,111" class="symbol"/>
    <polyline points="66,111 96,36 126,111" class="symbol"/>
    <circle cx="48" cy="123" r="7" fill="#075985"/>
    <circle cx="96" cy="123" r="7" fill="#075985"/>
    <text x="132" y="62" class="label" style="font-size:24px">Группа</text>
    <text x="132" y="98" class="label" style="font-size:24px">препятствий</text>
    <text x="132" y="137" class="note">Obstáculos</text>
  </g>

  <g id="symbol-prd-zone" transform="translate(20 300)">
    <rect class="panel" width="660" height="175" rx="14"/>
    <rect x="28" y="24" width="190" height="104" rx="5" fill="url(#prd-hatch)" stroke="#a90067" stroke-width="7"/>
    <path d="M 50 45 H 196 M 50 107 H 196" fill="none" stroke="#a90067" stroke-width="3" opacity="0.75"/>
    <text x="240" y="43" class="label">Запретная /</text>
    <text x="240" y="77" class="label">ограниченная /</text>
    <text x="240" y="111" class="label">опасная зона</text>
    <text x="240" y="140" class="note">
      <tspan x="240" y="140">P/R/D: границы, высоты</tspan>
      <tspan x="240" y="168">и статус зоны</tspan>
    </text>
  </g>

  <g id="symbol-powerline" transform="translate(20 495)">
    <rect class="panel" width="320" height="175" rx="14"/>
    <line x1="28" y1="70" x2="145" y2="70" class="symbol"/>
    <polyline points="58,70 58,36 88,36 88,70" class="symbol"/>
    <polyline points="113,70 113,36 143,36 143,70" class="symbol"/>
    <text x="155" y="50" class="label">ЛЭП /</text>
    <text x="155" y="84" class="label">кабель</text>
    <text x="155" y="119" class="note">Línea de</text>
    <text x="155" y="151" class="note">transmisión</text>
  </g>

  <g id="symbol-motorway" transform="translate(360 495)">
    <rect class="panel" width="320" height="175" rx="14"/>
    <line x1="28" y1="58" x2="152" y2="58" class="symbol"/>
    <line x1="28" y1="76" x2="152" y2="76" class="symbol"/>
    <text x="155" y="50" class="label">Авто-</text>
    <text x="155" y="84" class="label">магистраль</text>
    <text x="155" y="119" class="note">Autopista /</text>
    <text x="155" y="151" class="note">autovía</text>
  </g>

  <g id="symbol-railway" transform="translate(20 690)">
    <rect class="panel" width="320" height="175" rx="14"/>
    <line x1="28" y1="68" x2="152" y2="68" stroke="#475569" stroke-width="20"/>
    <rect x="42" y="58" width="20" height="20" fill="#ffffff"/>
    <rect x="80" y="58" width="20" height="20" fill="#ffffff"/>
    <rect x="118" y="58" width="20" height="20" fill="#ffffff"/>
    <text x="170" y="62" class="label">Железная</text>
    <text x="170" y="98" class="label">дорога</text>
    <text x="170" y="137" class="note">Ferrocarril</text>
  </g>

  <g id="symbol-landmark" transform="translate(360 690)">
    <rect class="panel" width="320" height="175" rx="14"/>
    <path d="M 36 110 H 148 M 49 110 L 60 48 H 124 L 137 110 M 47 35 H 76 V 48 H 96 V 35 H 127 V 48 H 47 Z" fill="none" stroke="#075985" stroke-width="7" stroke-linejoin="round"/>
    <rect x="82" y="80" width="22" height="30" fill="#ffffff" stroke="#075985" stroke-width="5"/>
    <text x="158" y="62" class="label">Наземный</text>
    <text x="158" y="98" class="label">ориентир</text>
    <text x="158" y="137" class="note">Castillo</text>
  </g>

  <text x="350" y="898" text-anchor="middle" class="note" style="font-size:22px">Источник формы знаков: ENAIRE AIP España GEN 2.3</text>
  <text x="350" y="928" text-anchor="middle" class="note">снимок проверен 13.07.2026</text>
</svg>
