<svg xmlns="http://www.w3.org/2000/svg" viewBox="0 0 720 1060" role="img" aria-labelledby="four-stroke-title four-stroke-desc">
  <title id="four-stroke-title">Четырёхтактный цикл поршневого двигателя</title>
  <desc id="four-stroke-desc">Четыре качественные панели показывают впуск, сжатие, рабочий ход и выпуск. Положения поршня, направления его движения и открытие клапанов различаются. Схема не задаёт углы фаз газораспределения и не является процедурой.</desc>
  <defs>
    <marker id="cycle-arrow" viewBox="0 0 12 12" refX="10" refY="6" markerWidth="18" markerHeight="18" markerUnits="userSpaceOnUse" orient="auto">
      <path d="M0 0 L12 6 L0 12 Z" fill="context-stroke"/>
    </marker>
  </defs>
  <rect width="720" height="1060" fill="#f8fafc"/>
  <text x="360" y="46" text-anchor="middle" font-family="Arial, sans-serif" font-size="32" font-weight="700" fill="#102a43">Четырёхтактный цикл — качественная модель</text>

  <g id="intake">
    <rect x="30" y="80" width="320" height="410" rx="18" fill="#eff6ff" stroke="#2563eb" stroke-width="4"/>
    <text x="190" y="120" text-anchor="middle" font-family="Arial, sans-serif" font-size="30" font-weight="700" fill="#1e3a8a">1. Впуск</text>
    <rect x="105" y="180" width="170" height="220" fill="#ffffff" stroke="#334155" stroke-width="5"/>
    <line x1="105" y1="180" x2="150" y2="180" stroke="#334155" stroke-width="5"/>
    <line x1="230" y1="180" x2="275" y2="180" stroke="#334155" stroke-width="5"/>
    <g id="intake-valve">
      <line x1="150" y1="145" x2="145" y2="205" stroke="#047857" stroke-width="7"/>
      <ellipse cx="143" cy="209" rx="23" ry="8" fill="#a7f3d0" stroke="#047857" stroke-width="4" transform="rotate(-7 143 209)"/>
    </g>
    <line x1="230" y1="145" x2="230" y2="190" stroke="#b91c1c" stroke-width="7"/>
    <ellipse cx="230" cy="192" rx="23" ry="8" fill="#fecaca" stroke="#b91c1c" stroke-width="4"/>
    <g id="piston">
      <rect x="118" y="250" width="144" height="48" rx="6" fill="#cbd5e1" stroke="#334155" stroke-width="5"/>
      <line x1="190" y1="298" x2="190" y2="360" stroke="#334155" stroke-width="8"/>
    </g>
    <path d="M55 205 C78 205 92 208 118 215" fill="none" stroke="#2563eb" stroke-width="7" marker-end="url(#cycle-arrow)"/>
    <line x1="302" y1="235" x2="302" y2="335" stroke="#2563eb" stroke-width="7" marker-end="url(#cycle-arrow)"/>
    <text x="190" y="438" text-anchor="middle" font-family="Arial, sans-serif" font-size="28" fill="#0f172a">впуск открыт · вниз</text>
    <text x="190" y="470" text-anchor="middle" font-family="Arial, sans-serif" font-size="28" fill="#0f172a">выпуск закрыт</text>
  </g>

  <g id="compression">
    <rect x="370" y="80" width="320" height="410" rx="18" fill="#fff7ed" stroke="#ea580c" stroke-width="4"/>
    <text x="530" y="120" text-anchor="middle" font-family="Arial, sans-serif" font-size="30" font-weight="700" fill="#9a3412">2. Сжатие</text>
    <rect x="445" y="180" width="170" height="220" fill="#ffffff" stroke="#334155" stroke-width="5"/>
    <line x1="445" y1="180" x2="490" y2="180" stroke="#334155" stroke-width="5"/>
    <line x1="570" y1="180" x2="615" y2="180" stroke="#334155" stroke-width="5"/>
    <line x1="490" y1="145" x2="490" y2="190" stroke="#047857" stroke-width="7"/>
    <ellipse cx="490" cy="192" rx="23" ry="8" fill="#a7f3d0" stroke="#047857" stroke-width="4"/>
    <line x1="570" y1="145" x2="570" y2="190" stroke="#b91c1c" stroke-width="7"/>
    <ellipse cx="570" cy="192" rx="23" ry="8" fill="#fecaca" stroke="#b91c1c" stroke-width="4"/>
    <rect x="458" y="225" width="144" height="48" rx="6" fill="#cbd5e1" stroke="#334155" stroke-width="5"/>
    <line x1="530" y1="273" x2="530" y2="360" stroke="#334155" stroke-width="8"/>
    <line x1="642" y1="335" x2="642" y2="235" stroke="#ea580c" stroke-width="7" marker-end="url(#cycle-arrow)"/>
    <path d="M475 215 Q530 185 585 215" fill="none" stroke="#f59e0b" stroke-width="5" stroke-dasharray="9 8"/>
    <text x="530" y="438" text-anchor="middle" font-family="Arial, sans-serif" font-size="28" fill="#0f172a">клапаны закрыты</text>
    <text x="530" y="470" text-anchor="middle" font-family="Arial, sans-serif" font-size="28" fill="#0f172a">поршень вверх</text>
  </g>

  <g id="power">
    <rect x="30" y="515" width="320" height="410" rx="18" fill="#fef2f2" stroke="#dc2626" stroke-width="4"/>
    <text x="190" y="555" text-anchor="middle" font-family="Arial, sans-serif" font-size="30" font-weight="700" fill="#991b1b">3. Рабочий ход</text>
    <rect x="105" y="615" width="170" height="220" fill="#ffffff" stroke="#334155" stroke-width="5"/>
    <line x1="105" y1="615" x2="150" y2="615" stroke="#334155" stroke-width="5"/>
    <line x1="230" y1="615" x2="275" y2="615" stroke="#334155" stroke-width="5"/>
    <line x1="150" y1="580" x2="150" y2="625" stroke="#047857" stroke-width="7"/>
    <ellipse cx="150" cy="627" rx="23" ry="8" fill="#a7f3d0" stroke="#047857" stroke-width="4"/>
    <line x1="230" y1="580" x2="230" y2="625" stroke="#b91c1c" stroke-width="7"/>
    <ellipse cx="230" cy="627" rx="23" ry="8" fill="#fecaca" stroke="#b91c1c" stroke-width="4"/>
    <path d="M172 652 l18 -26 l13 26 l22 -10 l-13 31 l-22 9 l-23 -10 Z" fill="#fbbf24" stroke="#dc2626" stroke-width="4"/>
    <rect x="118" y="685" width="144" height="48" rx="6" fill="#cbd5e1" stroke="#334155" stroke-width="5"/>
    <line x1="190" y1="733" x2="190" y2="800" stroke="#334155" stroke-width="8"/>
    <line x1="302" y1="670" x2="302" y2="770" stroke="#dc2626" stroke-width="7" marker-end="url(#cycle-arrow)"/>
    <text x="190" y="873" text-anchor="middle" font-family="Arial, sans-serif" font-size="28" fill="#0f172a">клапаны закрыты</text>
    <text x="190" y="905" text-anchor="middle" font-family="Arial, sans-serif" font-size="28" fill="#0f172a">расширение → вниз</text>
  </g>

  <g id="exhaust">
    <rect x="370" y="515" width="320" height="410" rx="18" fill="#f5f3ff" stroke="#7c3aed" stroke-width="4"/>
    <text x="530" y="555" text-anchor="middle" font-family="Arial, sans-serif" font-size="30" font-weight="700" fill="#5b21b6">4. Выпуск</text>
    <rect x="445" y="615" width="170" height="220" fill="#ffffff" stroke="#334155" stroke-width="5"/>
    <line x1="445" y1="615" x2="490" y2="615" stroke="#334155" stroke-width="5"/>
    <line x1="570" y1="615" x2="615" y2="615" stroke="#334155" stroke-width="5"/>
    <line x1="490" y1="580" x2="490" y2="625" stroke="#047857" stroke-width="7"/>
    <ellipse cx="490" cy="627" rx="23" ry="8" fill="#a7f3d0" stroke="#047857" stroke-width="4"/>
    <g id="exhaust-valve">
      <line x1="570" y1="580" x2="575" y2="640" stroke="#b91c1c" stroke-width="7"/>
      <ellipse cx="577" cy="644" rx="23" ry="8" fill="#fecaca" stroke="#b91c1c" stroke-width="4" transform="rotate(7 577 644)"/>
    </g>
    <rect x="458" y="660" width="144" height="48" rx="6" fill="#cbd5e1" stroke="#334155" stroke-width="5"/>
    <line x1="530" y1="708" x2="530" y2="800" stroke="#334155" stroke-width="8"/>
    <line x1="642" y1="770" x2="642" y2="670" stroke="#7c3aed" stroke-width="7" marker-end="url(#cycle-arrow)"/>
    <path d="M588 650 C618 635 633 632 665 632" fill="none" stroke="#7c3aed" stroke-width="7" marker-end="url(#cycle-arrow)"/>
    <text x="530" y="873" text-anchor="middle" font-family="Arial, sans-serif" font-size="28" fill="#0f172a">выпуск открыт · вверх</text>
    <text x="530" y="905" text-anchor="middle" font-family="Arial, sans-serif" font-size="28" fill="#0f172a">впуск закрыт</text>
  </g>

  <rect x="30" y="945" width="660" height="96" rx="14" fill="#102a43"/>
  <text x="360" y="978" text-anchor="middle" font-family="Arial, sans-serif" font-size="28" font-weight="700" fill="#ffffff">УЧЕБНАЯ СХЕМА — НЕ ЧЕК-ЛИСТ</text>
  <text x="360" y="1015" text-anchor="middle" font-family="Arial, sans-serif" font-size="28" fill="#ffffff">Фазы клапанов зависят от конструкции.</text>
</svg>
