<svg xmlns="http://www.w3.org/2000/svg" viewBox="0 0 720 1040" role="img" aria-labelledby="fuel-title fuel-desc">
  <title id="fuel-title">Обобщённая топливная система с карбюраторной и впрысковой ветвями</title>
  <desc id="fuel-desc">Поток идёт от вентилируемого бака через селектор, фильтрацию и насосный узел к двум альтернативным ветвям: карбюратору или системе впрыска. Возможная обратная магистраль показана от впрысковой ветви обратно к баку; её наличие зависит от установки.</desc>
  <defs>
    <marker id="fuel-arrow" viewBox="0 0 12 12" refX="10" refY="6" markerWidth="18" markerHeight="18" markerUnits="userSpaceOnUse" orient="auto">
      <path d="M0 0 L12 6 L0 12 Z" fill="context-stroke"/>
    </marker>
  </defs>
  <rect width="720" height="1040" fill="#f8fafc"/>
  <text x="360" y="25" text-anchor="middle" font-family="Arial, sans-serif" font-size="28" font-weight="700" fill="#102a43">Топливный тракт: функции узлов</text>
  <text x="360" y="55" text-anchor="middle" font-family="Arial, sans-serif" font-size="28" font-weight="700" fill="#102a43">не схема установки</text>

  <g id="tank">
    <path d="M225 88 H495 L525 145 V218 H195 V145 Z" fill="#dbeafe" stroke="#1d4ed8" stroke-width="5"/>
    <path d="M250 178 Q360 135 470 178 V205 H250 Z" fill="#60a5fa" opacity="0.75"/>
    <line x1="465" y1="88" x2="465" y2="68" stroke="#334155" stroke-width="5"/>
    <path d="M465 68 C490 63 505 70 510 84" fill="none" stroke="#334155" stroke-width="5" marker-end="url(#fuel-arrow)"/>
    <text x="360" y="130" text-anchor="middle" font-family="Arial, sans-serif" font-size="30" font-weight="700" fill="#1e3a8a">Бак</text>
    <text x="360" y="168" text-anchor="middle" font-family="Arial, sans-serif" font-size="28" fill="#1e3a8a">вентиляция зависит от установки</text>
  </g>

  <path d="M360 218 V270" fill="none" stroke="#2563eb" stroke-width="8" marker-end="url(#fuel-arrow)"/>
  <g id="selector">
    <rect x="230" y="282" width="260" height="74" rx="14" fill="#fff7ed" stroke="#c2410c" stroke-width="5"/>
    <circle cx="275" cy="319" r="19" fill="#ffffff" stroke="#c2410c" stroke-width="4"/>
    <line x1="275" y1="319" x2="287" y2="306" stroke="#c2410c" stroke-width="5"/>
    <text x="395" y="330" text-anchor="middle" font-family="Arial, sans-serif" font-size="30" font-weight="700" fill="#9a3412">Селектор</text>
  </g>

  <path d="M360 356 V406" fill="none" stroke="#2563eb" stroke-width="8" marker-end="url(#fuel-arrow)"/>
  <g id="filter">
    <polygon points="255,418 465,418 435,492 285,492" fill="#ecfdf5" stroke="#047857" stroke-width="5"/>
    <line x1="300" y1="440" x2="420" y2="440" stroke="#047857" stroke-width="4"/>
    <line x1="310" y1="460" x2="410" y2="460" stroke="#047857" stroke-width="4"/>
    <text x="360" y="482" text-anchor="middle" font-family="Arial, sans-serif" font-size="28" font-weight="700" fill="#065f46">Фильтр / отстой</text>
  </g>

  <path d="M360 492 V542" fill="none" stroke="#2563eb" stroke-width="8" marker-end="url(#fuel-arrow)"/>
  <g id="pump">
    <circle cx="360" cy="600" r="52" fill="#f5f3ff" stroke="#6d28d9" stroke-width="5"/>
    <path d="M330 600 H390 M370 580 L390 600 L370 620" fill="none" stroke="#6d28d9" stroke-width="6"/>
    <text x="500" y="680" text-anchor="middle" font-family="Arial, sans-serif" font-size="28" font-weight="700" fill="#5b21b6">Насосный узел</text>
  </g>

  <path d="M360 652 V720 H205 V755" fill="none" stroke="#2563eb" stroke-width="8" marker-end="url(#fuel-arrow)"/>
  <path d="M360 720 H515 V755" fill="none" stroke="#2563eb" stroke-width="8" marker-end="url(#fuel-arrow)"/>
  <circle cx="360" cy="720" r="10" fill="#2563eb"/>

  <g id="carburettor-branch">
    <rect x="55" y="770" width="300" height="120" rx="16" fill="#eff6ff" stroke="#2563eb" stroke-width="5"/>
    <text x="205" y="815" text-anchor="middle" font-family="Arial, sans-serif" font-size="28" font-weight="700" fill="#1e3a8a">Карбюратор</text>
    <text x="205" y="855" text-anchor="middle" font-family="Arial, sans-serif" font-size="28" fill="#1e3a8a">дозирует смесь</text>
  </g>

  <g id="injection-branch">
    <rect x="365" y="770" width="300" height="120" rx="16" fill="#ecfdf5" stroke="#047857" stroke-width="5"/>
    <text x="515" y="805" text-anchor="middle" font-family="Arial, sans-serif" font-size="28" font-weight="700" fill="#065f46">Впрыск</text>
    <text x="515" y="840" text-anchor="middle" font-family="Arial, sans-serif" font-size="28" fill="#065f46">давление</text>
    <text x="515" y="875" text-anchor="middle" font-family="Arial, sans-serif" font-size="28" fill="#065f46">и управление</text>
  </g>

  <path id="fuel-return" d="M555 890 V915 H690 V205 H535" fill="none" stroke="#64748b" stroke-width="5" stroke-dasharray="12 9" marker-end="url(#fuel-arrow)"/>
  <text x="670" y="535" text-anchor="end" font-family="Arial, sans-serif" font-size="28" fill="#475569">обратная магистраль</text>
  <text x="670" y="570" text-anchor="end" font-family="Arial, sans-serif" font-size="28" fill="#475569">только по установке</text>

  <rect x="30" y="930" width="660" height="82" rx="14" fill="#102a43"/>
  <text x="360" y="963" text-anchor="middle" font-family="Arial, sans-serif" font-size="28" font-weight="700" fill="#ffffff">УЧЕБНАЯ СХЕМА — НЕ ЧЕК-ЛИСТ</text>
  <text x="360" y="997" text-anchor="middle" font-family="Arial, sans-serif" font-size="28" fill="#ffffff">Состав и резервирование — только AFM/POH.</text>
</svg>
