<svg xmlns="http://www.w3.org/2000/svg" viewBox="0 0 760 1120" role="img" aria-labelledby="performance-title performance-desc">
  <title id="performance-title">Факторы лётных характеристик и ворота решения</title>
  <desc id="performance-desc">Три группы входов — самолёт, среда и полоса — проходят через проверку источника, применимую таблицу, проверку запаса и итоговое решение. Схема не содержит числовых поправок.</desc>
  <defs>
    <marker id="flow-arrow" markerWidth="9" markerHeight="9" refX="8" refY="4.5" orient="auto" markerUnits="strokeWidth">
      <path d="M0 0 L9 4.5 L0 9 Z" fill="#334155"/>
    </marker>
  </defs>
  <rect x="12" y="12" width="736" height="1096" rx="20" fill="#f8fafc" stroke="#0f172a" stroke-width="4"/>
  <text x="380" y="52" text-anchor="middle" font-size="34px" font-family="sans-serif" font-weight="700" fill="#0f172a">Характеристики: от входов к решению</text>
  <text x="380" y="90" text-anchor="middle" font-size="30px" font-family="sans-serif" fill="#991b1b">УЧЕБНАЯ СХЕМА — НЕ ДЛЯ ПОЛЁТА</text>

  <g id="aircraft-inputs">
    <rect x="40" y="130" width="680" height="150" rx="16" fill="#dbeafe" stroke="#2563eb" stroke-width="4"/>
    <text x="380" y="170" text-anchor="middle" font-size="32px" font-family="sans-serif" font-weight="700" fill="#1e3a8a">Самолёт</text>
    <rect x="65" y="195" width="180" height="55" rx="10" fill="#eff6ff" stroke="#2563eb" stroke-width="3"/>
    <rect x="290" y="195" width="180" height="55" rx="10" fill="#eff6ff" stroke="#2563eb" stroke-width="3"/>
    <rect x="515" y="195" width="180" height="55" rx="10" fill="#eff6ff" stroke="#2563eb" stroke-width="3"/>
    <text x="155" y="232" text-anchor="middle" font-size="30px" font-family="sans-serif" fill="#1e3a8a">масса / CG</text>
    <text x="380" y="232" text-anchor="middle" font-size="30px" font-family="sans-serif" fill="#1e3a8a">конфигурация</text>
    <text x="605" y="232" text-anchor="middle" font-size="30px" font-family="sans-serif" fill="#1e3a8a">состояние</text>
  </g>

  <g id="environment-inputs">
    <rect x="40" y="310" width="680" height="150" rx="16" fill="#dcfce7" stroke="#16a34a" stroke-width="4"/>
    <text x="380" y="350" text-anchor="middle" font-size="32px" font-family="sans-serif" font-weight="700" fill="#166534">Среда</text>
    <rect x="65" y="375" width="180" height="55" rx="10" fill="#f0fdf4" stroke="#16a34a" stroke-width="3"/>
    <rect x="290" y="375" width="180" height="55" rx="10" fill="#f0fdf4" stroke="#16a34a" stroke-width="3"/>
    <rect x="515" y="375" width="180" height="55" rx="10" fill="#f0fdf4" stroke="#16a34a" stroke-width="3"/>
    <text x="155" y="412" text-anchor="middle" font-size="30px" font-family="sans-serif" fill="#166534">PA / OAT</text>
    <text x="380" y="412" text-anchor="middle" font-size="30px" font-family="sans-serif" fill="#166534">ветер</text>
    <text x="605" y="412" text-anchor="middle" font-size="30px" font-family="sans-serif" fill="#166534">погода</text>
  </g>

  <g id="runway-inputs">
    <rect x="40" y="490" width="680" height="150" rx="16" fill="#ffedd5" stroke="#ea580c" stroke-width="4"/>
    <text x="380" y="530" text-anchor="middle" font-size="32px" font-family="sans-serif" font-weight="700" fill="#9a3412">Полоса и препятствия</text>
    <rect x="55" y="555" width="180" height="55" rx="10" fill="#fff7ed" stroke="#ea580c" stroke-width="3"/>
    <rect x="260" y="555" width="195" height="55" rx="10" fill="#fff7ed" stroke="#ea580c" stroke-width="3"/>
    <rect x="480" y="555" width="225" height="55" rx="10" fill="#fff7ed" stroke="#ea580c" stroke-width="3"/>
    <text x="145" y="592" text-anchor="middle" font-size="30px" font-family="sans-serif" fill="#9a3412">дистанция</text>
    <text x="357.5" y="592" text-anchor="middle" font-size="30px" font-family="sans-serif" fill="#9a3412">поверхность</text>
    <text x="592.5" y="592" text-anchor="middle" font-size="30px" font-family="sans-serif" fill="#9a3412">уклон / рельеф</text>
  </g>

  <path id="aircraft-to-source" data-from="aircraft-inputs" data-to="source-gate" d="M720 205 C742 205 742 665 430 704" fill="none" stroke="#334155" stroke-width="3" marker-end="url(#flow-arrow)"/>
  <path id="environment-to-source" data-from="environment-inputs" data-to="source-gate" d="M720 385 C732 385 732 665 405 696" fill="none" stroke="#334155" stroke-width="3" marker-end="url(#flow-arrow)"/>
  <line id="runway-to-source" data-from="runway-inputs" data-to="source-gate" x1="380" y1="640" x2="380" y2="690" stroke="#334155" stroke-width="5" marker-end="url(#flow-arrow)"/>
  <g id="source-gate">
    <polygon points="380,690 650,750 380,810 110,750" fill="#fef3c7" stroke="#d97706" stroke-width="5"/>
    <text x="380" y="742" text-anchor="middle" font-size="32px" font-family="sans-serif" font-weight="700" fill="#92400e">Источник применим?</text>
    <text x="380" y="778" text-anchor="middle" font-size="30px" font-family="sans-serif" fill="#92400e">ревизия · диапазон · метод</text>
  </g>

  <line id="source-to-table" data-from="source-gate" data-to="aircraft-table" x1="380" y1="810" x2="380" y2="850" stroke="#334155" stroke-width="5" marker-end="url(#flow-arrow)"/>
  <g id="aircraft-table">
    <rect x="135" y="850" width="490" height="72" rx="14" fill="#e0e7ff" stroke="#4f46e5" stroke-width="4"/>
    <text x="380" y="895" text-anchor="middle" font-size="30px" font-family="sans-serif" fill="#312e81">Таблица / график самолёта</text>
  </g>

  <line id="table-to-margin" data-from="aircraft-table" data-to="margin-gate" x1="380" y1="922" x2="380" y2="950" stroke="#334155" stroke-width="5" marker-end="url(#flow-arrow)"/>
  <g id="margin-gate">
    <rect x="110" y="950" width="540" height="66" rx="14" fill="#fce7f3" stroke="#db2777" stroke-width="4"/>
    <text x="380" y="992" text-anchor="middle" font-size="30px" font-family="sans-serif" fill="#9d174d">Запас и все ворота проходят?</text>
  </g>

  <line id="margin-to-decision" data-from="margin-gate" data-to="decision-gate" x1="380" y1="1016" x2="380" y2="1040" stroke="#334155" stroke-width="5" marker-end="url(#flow-arrow)"/>
  <g id="decision-gate">
    <rect x="210" y="1040" width="340" height="46" rx="12" fill="#fee2e2" stroke="#dc2626" stroke-width="4"/>
    <text x="380" y="1073" text-anchor="middle" font-size="30px" font-family="sans-serif" font-weight="700" fill="#7f1d1d">GO / NO-GO / REPLAN</text>
  </g>
</svg>
