<svg xmlns="http://www.w3.org/2000/svg" viewBox="0 0 680 760" role="img" aria-labelledby="wind-title wind-desc">
  <title id="wind-title">Треугольник скоростей: курс носа, линия пути, ветер, WCA и снос</title>
  <desc id="wind-desc">Оригинальная синтетическая векторная схема. Воздушный вектор направлен по курсу носа; ветер сообщается как идущий с северо-запада, но вектор переноса направлен на юго-восток; сумма даёт движение над землёй. Положительный WCA направлен вправо, отрицательный — влево.</desc>
  <defs>
    <marker id="arrowhead" viewBox="0 0 10 10" refX="9" refY="5" markerWidth="18" markerHeight="18" markerUnits="userSpaceOnUse" orient="auto-start-reverse">
      <path d="M 0 0 L 10 5 L 0 10 z" fill="context-stroke"/>
    </marker>
  </defs>
  <rect x="8" y="8" width="664" height="744" rx="18" fill="#f8fafc" stroke="#0f172a" stroke-width="3"/>
  <text x="340" y="46" text-anchor="middle" font-size="30" font-weight="700" fill="#0f172a">Векторный треугольник</text>

  <g id="axes" stroke="#94a3b8" stroke-width="2">
    <line x1="100" y1="650" x2="100" y2="110" marker-end="url(#arrowhead)"/>
    <line x1="100" y1="650" x2="610" y2="650" marker-end="url(#arrowhead)"/>
  </g>
  <text x="88" y="96" font-size="28" fill="#334155">С / N · 000°</text>
  <text x="645" y="625" text-anchor="end" font-size="28" fill="#334155">В / E · 090°</text>

  <g id="heading-vector">
    <line x1="100" y1="650" x2="325" y2="205" stroke="#1d4ed8" stroke-width="8" marker-end="url(#arrowhead)"/>
    <rect x="118" y="345" width="304" height="76" rx="10" fill="#f8fafc" fill-opacity="0.94"/>
    <text x="130" y="375" font-size="28" font-weight="700" fill="#1d4ed8">курс носа / heading</text>
    <text x="130" y="409" font-size="28" font-weight="700" fill="#1d4ed8">воздушная скорость TAS</text>
  </g>

  <g id="wind-vector">
    <line x1="325" y1="205" x2="540" y2="320" stroke="#b45309" stroke-width="8" marker-end="url(#arrowhead)"/>
    <text x="325" y="105" font-size="28" font-weight="700" fill="#92400e">ветер от / wind from NW</text>
    <text x="325" y="140" font-size="28" fill="#92400e">вектор переноса → SE</text>
  </g>

  <g id="track-vector">
    <line x1="100" y1="650" x2="540" y2="320" stroke="#047857" stroke-width="9" marker-end="url(#arrowhead)"/>
    <rect x="300" y="520" width="330" height="46" rx="10" fill="#f8fafc" fill-opacity="0.94"/>
    <text x="315" y="552" font-size="28" font-weight="700" fill="#047857">линия пути / track · GS</text>
  </g>

  <g id="wca-arc" fill="none" stroke="#7c3aed" stroke-width="5">
    <path d="M 151 549 A 125 125 0 0 1 195 576"/>
  </g>
  <text x="205" y="612" font-size="28" font-weight="700" fill="#6d28d9">WCA</text>

  <g id="drift-arc" fill="none" stroke="#dc2626" stroke-width="4" stroke-dasharray="8 7">
    <path d="M 318 427 A 184 184 0 0 0 367 470"/>
  </g>
  <rect x="370" y="421" width="254" height="76" rx="10" fill="#f8fafc" fill-opacity="0.94"/>
  <text x="382" y="452" font-size="28" font-weight="700" fill="#b91c1c">снос / drift</text>
  <text x="382" y="484" font-size="28" fill="#b91c1c">без поправки</text>

  <rect x="45" y="674" width="590" height="62" rx="12" fill="#ede9fe" stroke="#6d28d9" stroke-width="2"/>
  <text x="340" y="703" text-anchor="middle" font-size="28" font-weight="700" fill="#4c1d95">WCA: + вправо · − влево</text>
  <text x="340" y="729" text-anchor="middle" font-size="28" fill="#4c1d95">стрелка ветра показывает перенос</text>
</svg>
