<svg xmlns="http://www.w3.org/2000/svg" viewBox="0 0 680 620" role="img" aria-labelledby="wind-title wind-desc">
  <title id="wind-title">Wind triangle: heading, track, wind, WCA and drift</title>
  <desc id="wind-desc">Original synthetic vector diagram. Air vector follows heading, wind vector is reported from north but points south-east as transport, and their sum gives ground track. Positive WCA is right and negative WCA is left.</desc>
  <defs>
    <marker id="arrowhead" viewBox="0 0 10 10" refX="9" refY="5" markerWidth="18" markerHeight="18" markerUnits="userSpaceOnUse" orient="auto-start-reverse">
      <path d="M 0 0 L 10 5 L 0 10 z" fill="context-stroke"/>
    </marker>
  </defs>
  <rect x="8" y="8" width="664" height="604" rx="18" fill="#f8fafc" stroke="#0f172a" stroke-width="3"/>
  <text x="340" y="46" text-anchor="middle" font-size="28" font-weight="700" fill="#0f172a">Векторный треугольник</text>
  <g id="axes" stroke="#94a3b8" stroke-width="2">
    <line x1="120" y1="510" x2="120" y2="105" marker-end="url(#arrowhead)"/>
    <line x1="120" y1="510" x2="600" y2="510" marker-end="url(#arrowhead)"/>
  </g>
  <text x="102" y="96" text-anchor="middle" font-size="24" fill="#334155">N / 000°</text>
  <text x="650" y="480" text-anchor="end" font-size="24" fill="#334155">E / 090°</text>
  <g id="heading-vector">
    <line x1="120" y1="510" x2="370" y2="160" stroke="#1d4ed8" stroke-width="8" marker-end="url(#arrowhead)"/>
    <text x="205" y="274" font-size="26" font-weight="700" fill="#1d4ed8">heading / TAS</text>
  </g>
  <g id="wind-vector">
    <line x1="370" y1="160" x2="540" y2="250" stroke="#b45309" stroke-width="8" marker-end="url(#arrowhead)"/>
    <text x="390" y="125" font-size="24" font-weight="700" fill="#92400e">wind from NW</text>
    <text x="390" y="153" font-size="24" fill="#92400e">перенос → SE</text>
  </g>
  <g id="track-vector">
    <line x1="120" y1="510" x2="540" y2="250" stroke="#047857" stroke-width="9" marker-end="url(#arrowhead)"/>
    <text x="374" y="405" font-size="26" font-weight="700" fill="#047857">track / GS</text>
  </g>
  <g id="wca-arc" fill="none" stroke="#7c3aed" stroke-width="5">
    <path d="M 206 390 A 148 148 0 0 1 248 430"/>
  </g>
  <text x="254" y="383" font-size="24" font-weight="700" fill="#6d28d9">WCA</text>
  <g id="drift-arc" fill="none" stroke="#dc2626" stroke-width="4" stroke-dasharray="8 7">
    <path d="M 284 366 A 190 190 0 0 0 327 412"/>
  </g>
  <text x="330" y="365" font-size="24" fill="#b91c1c">drift без поправки</text>
  <rect x="68" y="530" width="544" height="68" rx="12" fill="#ede9fe" stroke="#6d28d9" stroke-width="2"/>
  <text x="340" y="558" text-anchor="middle" font-size="24" font-weight="700" fill="#4c1d95">WCA: + вправо · − влево</text>
  <text x="340" y="584" text-anchor="middle" font-size="24" fill="#4c1d95">стрелка ветра показывает перенос</text>
</svg>
